<?xml version="1.0" encoding="utf-8"?>
<!-- Generator: Adobe Illustrator 19.2.1, SVG Export Plug-In . SVG Version: 6.00 Build 0)  -->
<svg version="1.1" id="Layer_1" xmlns="http://www.w3.org/2000/svg" xmlns:xlink="http://www.w3.org/1999/xlink" x="0px" y="0px"
	 viewBox="0 0 294.8 164.4" style="enable-background:new 0 0 294.8 164.4;" xml:space="preserve">
<metadata><?xpacket begin="﻿" id="W5M0MpCehiHzreSzNTczkc9d"?>
<x:xmpmeta xmlns:x="adobe:ns:meta/" x:xmptk="Adobe XMP Core 5.6-c111 79.158366, 2015/09/25-01:12:00        ">
   <rdf:RDF xmlns:rdf="http://www.w3.org/1999/02/22-rdf-syntax-ns#">
      <rdf:Description rdf:about=""/>
   </rdf:RDF>
</x:xmpmeta>
                                                                                                    
                                                                                                    
                                                                                                    
                                                                                                    
                                                                                                    
                                                                                                    
                                                                                                    
                                                                                                    
                                                                                                    
                                                                                                    
                                                                                                    
                                                                                                    
                                                                                                    
                                                                                                    
                                                                                                    
                                                                                                    
                                                                                                    
                                                                                                    
                                                                                                    
                                                                                                    
                           
<?xpacket end="w"?></metadata>
<style type="text/css">
	.st0{opacity:0.8;fill:url(#SVGID_1_);}
	.st1{fill:#FFFFFF;}
	.st2{clip-path:url(#SVGID_3_);fill:#FFFFFF;}
	.st3{fill:none;stroke:#6F6F6F;stroke-width:0.9869;}
</style>
<g>
	<linearGradient id="SVGID_1_" gradientUnits="userSpaceOnUse" x1="12.4216" y1="11.9386" x2="282.372" y2="152.4659">
		<stop  offset="0" style="stop-color:#EF7B44"/>
		<stop  offset="1" style="stop-color:#E73446"/>
	</linearGradient>
	<rect x="11.3" y="11.3" class="st0" width="272.1" height="141.7"/>
	<g>
		<path class="st1" d="M71.1,109l5.8,13.8l5.8-13.8h1.8v15.6h-1.3v-6.8l0.1-7l-5.8,13.8h-1l-5.8-13.7l0.1,6.9v6.9h-1.3V109H71.1z"/>
		<path class="st1" d="M88.4,118.6c0-1.1,0.2-2.1,0.6-3c0.4-0.9,1-1.6,1.8-2.1c0.8-0.5,1.7-0.7,2.7-0.7c1.5,0,2.8,0.5,3.8,1.6
			c1,1.1,1.4,2.5,1.4,4.3v0.3c0,1.1-0.2,2.1-0.6,3c-0.4,0.9-1,1.6-1.8,2.1c-0.8,0.5-1.7,0.7-2.7,0.7c-1.5,0-2.8-0.5-3.8-1.6
			c-1-1.1-1.4-2.5-1.4-4.3V118.6z M89.7,119c0,1.4,0.4,2.5,1.1,3.4c0.7,0.9,1.7,1.3,2.8,1.3c1.2,0,2.1-0.4,2.8-1.3
			c0.7-0.9,1.1-2.1,1.1-3.5v-0.2c0-0.9-0.2-1.7-0.5-2.4c-0.3-0.7-0.8-1.3-1.4-1.7c-0.6-0.4-1.3-0.6-2-0.6c-1.1,0-2.1,0.4-2.8,1.3
			c-0.7,0.9-1.1,2.1-1.1,3.5V119z"/>
		<path class="st1" d="M105.7,122.8l3.5-9.9h1.3l-4.3,11.6h-1l-4.4-11.6h1.3L105.7,122.8z"/>
		<path class="st1" d="M117.7,124.8c-1,0-1.9-0.2-2.7-0.7c-0.8-0.5-1.4-1.2-1.9-2c-0.4-0.9-0.7-1.8-0.7-2.9v-0.5
			c0-1.1,0.2-2.1,0.6-3c0.4-0.9,1-1.6,1.8-2.1c0.8-0.5,1.6-0.8,2.5-0.8c1.4,0,2.5,0.5,3.4,1.4c0.8,1,1.2,2.3,1.2,3.9v0.7h-8.3v0.2
			c0,1.3,0.4,2.4,1.1,3.3c0.8,0.9,1.7,1.3,2.9,1.3c0.7,0,1.3-0.1,1.8-0.4s1-0.7,1.4-1.2l0.8,0.6
			C120.9,124.2,119.5,124.8,117.7,124.8z M117.5,113.9c-1,0-1.8,0.4-2.4,1.1c-0.7,0.7-1.1,1.7-1.2,2.9h7v-0.1c0-1.1-0.4-2-1-2.7
			S118.4,113.9,117.5,113.9z"/>
		<path class="st1" d="M134.1,110v3h2.4v1.1h-2.4v7.8c0,0.6,0.1,1.1,0.3,1.4c0.2,0.3,0.6,0.5,1.2,0.5c0.2,0,0.6,0,1-0.1l0.1,1
			c-0.3,0.1-0.8,0.2-1.4,0.2c-0.9,0-1.5-0.3-1.9-0.8c-0.4-0.5-0.6-1.3-0.6-2.3v-7.8h-2.1V113h2.1v-3H134.1z"/>
		<path class="st1" d="M141.3,115c0.4-0.7,1-1.2,1.6-1.6c0.7-0.4,1.4-0.6,2.2-0.6c1.2,0,2.2,0.4,2.8,1.1c0.6,0.7,0.9,1.8,0.9,3.2
			v7.6h-1.3V117c0-1-0.2-1.8-0.7-2.3c-0.4-0.5-1.1-0.8-2.1-0.8c-0.8,0-1.5,0.2-2.1,0.7c-0.6,0.5-1.1,1.2-1.4,2v8h-1.3v-16.5h1.3V115
			z"/>
		<path class="st1" d="M157.6,124.8c-1,0-1.9-0.2-2.7-0.7s-1.4-1.2-1.9-2c-0.4-0.9-0.7-1.8-0.7-2.9v-0.5c0-1.1,0.2-2.1,0.6-3
			s1-1.6,1.8-2.1c0.8-0.5,1.6-0.8,2.5-0.8c1.4,0,2.5,0.5,3.4,1.4c0.8,1,1.2,2.3,1.2,3.9v0.7h-8.3v0.2c0,1.3,0.4,2.4,1.1,3.3
			c0.8,0.9,1.7,1.3,2.9,1.3c0.7,0,1.3-0.1,1.8-0.4s1-0.7,1.4-1.2l0.8,0.6C160.8,124.2,159.4,124.8,157.6,124.8z M157.4,113.9
			c-1,0-1.8,0.4-2.4,1.1s-1.1,1.7-1.2,2.9h7v-0.1c0-1.1-0.4-2-1-2.7S158.4,113.9,157.4,113.9z"/>
		<path class="st1" d="M174.8,121.9l0.2,1l0.3-1.1l2.8-8.9h1.1l2.8,8.8l0.3,1.2l0.2-1.1l2.4-8.9h1.3l-3.4,11.6h-1.1l-3-9.2l-0.1-0.6
			l-0.1,0.6l-2.9,9.2h-1.1L171,113h1.3L174.8,121.9z"/>
		<path class="st1" d="M188.6,118.6c0-1.1,0.2-2.1,0.6-3s1-1.6,1.8-2.1c0.8-0.5,1.7-0.7,2.7-0.7c1.5,0,2.8,0.5,3.8,1.6
			c1,1.1,1.4,2.5,1.4,4.3v0.3c0,1.1-0.2,2.1-0.7,3c-0.4,0.9-1,1.6-1.8,2.1c-0.8,0.5-1.7,0.7-2.7,0.7c-1.5,0-2.8-0.5-3.8-1.6
			c-1-1.1-1.4-2.5-1.4-4.3V118.6z M189.9,119c0,1.4,0.4,2.5,1.1,3.4c0.7,0.9,1.7,1.3,2.8,1.3c1.2,0,2.1-0.4,2.8-1.3
			c0.7-0.9,1.1-2.1,1.1-3.5v-0.2c0-0.9-0.2-1.7-0.5-2.4c-0.3-0.7-0.8-1.3-1.4-1.7c-0.6-0.4-1.3-0.6-2-0.6c-1.1,0-2.1,0.4-2.8,1.3
			c-0.7,0.9-1.1,2.1-1.1,3.5V119z"/>
		<path class="st1" d="M208,114.1c-0.3,0-0.6-0.1-0.9-0.1c-0.8,0-1.5,0.2-2,0.7c-0.6,0.4-1,1.1-1.2,2v8h-1.3V113h1.3l0,1.8
			c0.7-1.4,1.8-2.1,3.3-2.1c0.4,0,0.6,0,0.8,0.1L208,114.1z"/>
		<path class="st1" d="M212.4,124.6h-1.3v-16.5h1.3V124.6z"/>
		<path class="st1" d="M216.3,118.7c0-1.8,0.4-3.2,1.2-4.3c0.8-1.1,1.9-1.6,3.3-1.6c1.6,0,2.8,0.6,3.6,1.9v-6.5h1.3v16.5h-1.2
			l-0.1-1.5c-0.8,1.2-2,1.8-3.6,1.8c-1.3,0-2.4-0.5-3.2-1.6c-0.8-1.1-1.2-2.5-1.2-4.4V118.7z M217.6,118.9c0,1.5,0.3,2.7,0.9,3.5
			c0.6,0.9,1.4,1.3,2.5,1.3c1.6,0,2.7-0.7,3.4-2.1v-5.5c-0.7-1.5-1.8-2.3-3.4-2.3c-1.1,0-1.9,0.4-2.5,1.3
			C217.9,116,217.6,117.3,217.6,118.9z"/>
	</g>
	<g>
		<g>
			<g>
				<defs>
					<rect id="SVGID_2_" x="33.8" y="28.1" width="238.6" height="84.2"/>
				</defs>
				<clipPath id="SVGID_3_">
					<use xlink:href="#SVGID_2_"  style="overflow:visible;"/>
				</clipPath>
				<path class="st2" d="M152.1,52.9c2.3,1.9,3.9,2.8,4.9,2.8c0.1,0,0.3,0,0.4-0.1c0.2-0.1,0.3-0.1,0.4-0.1c0.1,0,0.2,0,0.2,0.2
					c0,0.2-0.3,0.4-0.7,0.6c-0.5,0.2-1,0.3-1.5,0.3c-0.8,0-1.4-0.1-2.1-0.4c-0.6-0.3-1.5-0.9-2.7-1.8c-1.7,1.5-3.4,2.2-5.3,2.2
					c-1.9,0-3.4-0.5-4.7-1.6c-1.2-1.1-1.9-2.4-1.9-4.1c0-1.4,0.5-2.5,1.4-3.5c0.5-0.5,1.3-0.9,2.2-1.1c-0.7-0.9-1-1.7-1-2.6
					c0-0.9,0.3-1.6,1-2.2c0.7-0.6,1.6-0.8,2.7-0.8c0.6,0,1.1,0.1,1.8,0.4l0.5,0.2l0.1,0c0.1,0,0.1,0,0.2-0.1
					c0.1-0.1,0.1-0.1,0.2-0.1c0.2,0,0.3,0.3,0.3,0.8l0,0.6l0.1,0.9c0,0.2,0,0.3,0,0.4c0,0.2-0.1,0.2-0.3,0.2c-0.1,0-0.2-0.1-0.2-0.3
					c-0.2-0.6-0.6-1.2-1.3-1.7c-0.7-0.5-1.3-0.7-1.9-0.7c-0.5,0-1,0.2-1.4,0.5c-0.4,0.3-0.6,0.7-0.6,1.2c0,0.4,0.2,0.9,0.5,1.5
					c0.4,0.6,1,1.3,1.8,2.1l2.9,2.9c0.7,0.8,1.8,1.7,3.2,2.9c0.4-0.7,0.6-1.4,0.6-2.2c0-0.6-0.1-1.1-0.4-1.5c-0.2-0.4-0.6-0.6-1-0.7
					l-0.5-0.1c-0.2,0-0.3-0.1-0.3-0.3c0-0.1,0.1-0.2,0.3-0.2c0.1,0,0.2,0,0.3,0c0.2,0,0.9,0,2,0c0.3,0,0.7,0,0.9,0
					c0.3,0,0.5,0,0.6,0c0.1,0,0.2,0.1,0.2,0.2c0,0.1-0.1,0.2-0.3,0.3c-0.2,0.1-0.4,0.2-0.5,0.5c-0.1,0.2-0.2,0.6-0.2,1.2
					C153,50.8,152.6,51.9,152.1,52.9 M150.3,53.8c-0.2-0.2-0.4-0.4-0.5-0.4l-1.1-0.9c-0.6-0.5-1.4-1.3-2.4-2.3c-1-1-1.8-1.9-2.4-2.6
					c-0.5-0.6-0.9-0.8-1.2-0.8c-0.5,0-1,0.3-1.5,0.9c-0.5,0.6-0.8,1.4-0.8,2.3c0,1.1,0.4,2.2,1.3,3.2c1.2,1.4,2.7,2.1,4.6,2.1
					C147.9,55.1,149.2,54.7,150.3,53.8"/>
				<path class="st2" d="M168.3,40.1c0.8,0,1.5,0.1,2.1,0.4l0.8,0.3c0.1,0,0.1,0,0.2,0c0.1,0,0.2,0,0.3-0.1l0.2-0.1c0,0,0.1,0,0.1,0
					c0.2,0,0.3,0.2,0.3,0.6c0,0.1,0.1,0.5,0.2,1.2l0.2,1.2c0,0.3,0.1,0.4,0.1,0.5c0,0.2-0.1,0.4-0.2,0.4c-0.1,0-0.3-0.2-0.4-0.6
					c-0.3-0.8-0.8-1.5-1.7-2.1c-0.9-0.5-1.8-0.8-2.9-0.8c-0.8,0-1.5,0.2-2.1,0.7c-0.6,0.5-0.8,1.1-0.8,1.8c0,0.7,0.2,1.2,0.5,1.7
					c0.3,0.4,0.7,0.7,1,0.9c0.4,0.2,1.3,0.5,2.8,1c2.9,0.9,4.3,2.5,4.3,4.6c0,1.5-0.5,2.6-1.6,3.6c-1.1,0.9-2.4,1.4-4.1,1.4
					c-0.6,0-1.3-0.1-2-0.3c-0.7-0.2-1.2-0.4-1.6-0.6c-0.1-0.1-0.2-0.2-0.3-0.3c0-0.1-0.1-0.4-0.2-0.8c0-0.1-0.1-0.4-0.3-1.1
					c-0.2-0.7-0.3-1.2-0.3-1.5c0-0.2,0.1-0.3,0.2-0.3c0.1,0,0.3,0.2,0.4,0.6c0.3,1,0.9,1.8,1.8,2.4c0.9,0.7,1.9,1,2.9,1
					c1.1,0,2-0.3,2.7-0.9c0.7-0.6,1.1-1.4,1.1-2.3c0-0.9-0.3-1.6-1-2.2c-0.4-0.3-1.4-0.7-3-1.3c-1.7-0.6-2.9-1.2-3.6-1.9
					c-0.7-0.7-1.1-1.6-1.1-2.7c0-1.3,0.5-2.3,1.4-3.1C165.6,40.4,166.9,40.1,168.3,40.1"/>
				<path class="st2" d="M181.7,51h-3.8c-0.5,0-0.8,0-1,0.1c-0.1,0.1-0.3,0.4-0.5,0.8l-0.7,1.5c-0.3,0.7-0.5,1.2-0.5,1.5
					c0,0.3,0.1,0.5,0.2,0.7c0.2,0.1,0.5,0.3,1,0.4c0.2,0,0.3,0.1,0.3,0.2c0,0.1-0.1,0.2-0.3,0.2c-0.1,0-0.2,0-0.4,0l-1-0.1
					c-0.3,0-0.7,0-1.2,0c-0.2,0-0.4,0-0.5,0c-0.4,0-0.6,0.1-0.6,0.1c-0.2,0-0.3-0.1-0.3-0.2c0-0.1,0.1-0.2,0.2-0.2l0.4-0.1
					c0.1,0,0.3-0.2,0.6-0.5c0.2-0.3,0.4-0.6,0.6-0.9l0.3-0.7l5.4-11.6c0.1-0.2,0.2-0.3,0.3-0.3c0.1,0,0.2,0.1,0.3,0.3l4.5,11.2
					l0.2,0.6c0.3,0.8,0.6,1.3,0.8,1.5c0.2,0.2,0.7,0.4,1.3,0.5c0.2,0,0.3,0.1,0.3,0.2c0,0.1-0.1,0.2-0.3,0.2c-0.1,0-0.2,0-0.4,0
					c-0.4,0-1-0.1-1.9-0.1c-1,0-1.6,0-1.8,0.1c-0.1,0-0.3,0-0.3,0c-0.2,0-0.3-0.1-0.3-0.2c0-0.1,0.1-0.2,0.3-0.2l0.3-0.1
					c0.3-0.1,0.5-0.3,0.5-0.7c0-0.4-0.2-1.1-0.6-2.1l-0.5-1.3c-0.1-0.4-0.3-0.6-0.3-0.6C182.4,51,182.1,51,181.7,51 M181.9,49.3
					l-1.6-4l-0.1-0.2c-0.1-0.2-0.2-0.3-0.3-0.3c0,0-0.1,0.1-0.2,0.2l-2,4.4c-0.1,0.2-0.1,0.3-0.1,0.4c0,0.2,0.2,0.3,0.5,0.3l0.3,0
					h3.2c0.3,0,0.5-0.1,0.5-0.3c0,0,0-0.1,0-0.2L181.9,49.3z"/>
				<path class="st2" d="M196.1,51h-3.8c-0.5,0-0.8,0-1,0.1c-0.1,0.1-0.3,0.4-0.5,0.8l-0.7,1.5c-0.3,0.7-0.5,1.2-0.5,1.5
					c0,0.3,0.1,0.5,0.2,0.7c0.2,0.1,0.5,0.3,1,0.4c0.2,0,0.3,0.1,0.3,0.2c0,0.1-0.1,0.2-0.3,0.2c-0.1,0-0.2,0-0.4,0l-1-0.1
					c-0.3,0-0.7,0-1.2,0c-0.2,0-0.4,0-0.5,0c-0.4,0-0.6,0.1-0.6,0.1c-0.2,0-0.3-0.1-0.3-0.2c0-0.1,0.1-0.2,0.2-0.2l0.4-0.1
					c0.1,0,0.3-0.2,0.6-0.5c0.2-0.3,0.4-0.6,0.6-0.9l0.3-0.7l5.4-11.6c0.1-0.2,0.2-0.3,0.3-0.3c0.1,0,0.2,0.1,0.3,0.3l4.5,11.2
					l0.2,0.6c0.3,0.8,0.6,1.3,0.8,1.5c0.2,0.2,0.7,0.4,1.3,0.5c0.2,0,0.3,0.1,0.3,0.2c0,0.1-0.1,0.2-0.3,0.2c-0.1,0-0.2,0-0.4,0
					c-0.4,0-1-0.1-1.9-0.1c-1,0-1.6,0-1.8,0.1c-0.1,0-0.3,0-0.3,0c-0.2,0-0.3-0.1-0.3-0.2c0-0.1,0.1-0.2,0.3-0.2l0.3-0.1
					c0.3-0.1,0.5-0.3,0.5-0.7c0-0.4-0.2-1.1-0.6-2.1l-0.5-1.3c-0.2-0.4-0.3-0.6-0.3-0.6C196.7,51,196.5,51,196.1,51 M196.2,49.3
					l-1.6-4l-0.1-0.2c-0.1-0.2-0.2-0.3-0.3-0.3c0,0-0.1,0.1-0.2,0.2l-2,4.4c-0.1,0.2-0.1,0.3-0.1,0.4c0,0.2,0.2,0.3,0.5,0.3l0.3,0
					h3.2c0.3,0,0.5-0.1,0.5-0.3c0,0,0-0.1-0.1-0.2L196.2,49.3z"/>
				<path class="st2" d="M210.6,43h-3c-0.3,0-0.5,0-0.6,0.1c-0.1,0.1-0.1,0.3-0.1,0.6v10.3l0,0.4c0,0.8,0.5,1.3,1.4,1.5
					c0.2,0,0.4,0.1,0.4,0.2c0,0.2-0.1,0.2-0.3,0.2c-0.1,0-0.3,0-0.5-0.1c-0.1,0-0.5,0-1,0l-0.8,0l-0.8,0c-0.3,0-0.5,0-0.7,0
					c-0.4,0-0.6,0.1-0.7,0.1c-0.2,0-0.3-0.1-0.3-0.2c0-0.1,0.1-0.2,0.3-0.2c0.5-0.1,0.9-0.2,1.1-0.4c0.2-0.2,0.3-0.6,0.3-1.2V43.9
					l0-0.3c0-0.3,0-0.4-0.1-0.5c-0.1-0.1-0.2-0.1-0.5-0.1h-2.8c-0.6,0-1,0.1-1.2,0.3c-0.3,0.2-0.5,0.7-0.6,1.3
					c-0.1,0.3-0.2,0.4-0.3,0.4c-0.1,0-0.2-0.1-0.2-0.3c0-0.1,0-0.4,0.1-0.8c0.1-0.5,0.2-0.9,0.2-1.2c0-0.3,0-0.5,0.1-0.6
					c0.1-0.1,0.2-0.2,0.5-0.2h11.3c0.4,0,0.6,0,0.7,0.1c0.1,0.1,0.1,0.3,0.1,0.7c0,0.4,0,0.7,0.1,0.9c0,0.2,0.1,0.4,0.1,0.5
					c0,0.2-0.1,0.3-0.2,0.3c-0.1,0-0.2-0.1-0.3-0.3c-0.1-0.5-0.2-0.8-0.4-1C211.6,43.1,211.2,43,210.6,43"/>
				<path class="st2" d="M225.4,43.4l0.3,2.5l0,0.3l0,0.1c0,0.1-0.1,0.1-0.2,0.1c-0.1,0-0.2-0.1-0.4-0.4c-1.3-2.3-3.1-3.4-5.3-3.4
					c-1.8,0-3.2,0.5-4.2,1.6c-1,1.1-1.5,2.6-1.5,4.4c0,2.2,0.6,3.9,1.7,5.3c1.1,1.4,2.6,2.1,4.4,2.1c1.1,0,2.1-0.3,3.1-0.8
					c1-0.5,1.7-1.2,2.1-2c0.2-0.4,0.3-0.6,0.4-0.6c0.1,0,0.2,0.1,0.2,0.2l0,0.1l0,0.2l-0.2,1.3l0,0.2c0,0.2-0.2,0.4-0.5,0.6
					c-1.6,1-3.4,1.5-5.3,1.5c-2.3,0-4.1-0.7-5.4-2c-1.4-1.3-2.1-3.1-2.1-5.2c0-2.1,0.7-3.9,2.1-5.4c1.4-1.4,3.2-2.1,5.4-2.1
					c1.5,0,2.8,0.3,4.1,1l0.4,0.2l0.2,0.1l0.2,0.1c0,0,0.1,0,0.2-0.1c0.2-0.1,0.3-0.2,0.3-0.2C225.3,43,225.4,43.1,225.4,43.4"/>
				<path class="st2" d="M231.1,48.6h6.2c0.3,0,0.5,0,0.6-0.1c0.1-0.1,0.1-0.2,0.1-0.4v-3.5c0-0.7-0.1-1.2-0.3-1.5
					c-0.2-0.3-0.5-0.5-1-0.6c-0.2,0-0.3-0.1-0.3-0.2c0-0.1,0.1-0.2,0.3-0.2c0.1,0,0.4,0,0.7,0.1c0.5,0,1,0.1,1.5,0.1
					c0.7,0,1.3,0,1.6-0.1c0.2,0,0.3,0,0.4,0c0.2,0,0.3,0.1,0.3,0.2c0,0.1-0.1,0.2-0.3,0.2l-0.4,0.1c-0.2,0-0.4,0.2-0.5,0.5
					c-0.1,0.3-0.2,0.6-0.2,0.9v10c0,0.7,0.1,1.2,0.3,1.5c0.2,0.3,0.6,0.5,1.2,0.5c0.2,0,0.3,0.1,0.3,0.2c0,0.2-0.1,0.2-0.3,0.2
					c-0.1,0-0.3,0-0.5,0c-0.2,0-0.5,0-1.1,0l-0.8,0l-0.8,0c-0.1,0-0.3,0-0.5,0c-0.4,0-0.7,0-0.7,0c-0.2,0-0.3-0.1-0.2-0.2
					c0-0.1,0.1-0.2,0.4-0.2c0.7-0.1,1.1-0.7,1.1-1.8l0-0.4V50c0-0.3,0-0.5-0.1-0.6c-0.1-0.1-0.3-0.1-0.6-0.1h-6.2
					c-0.4,0-0.6,0-0.7,0.1c-0.1,0.1-0.1,0.3-0.1,0.6v3.8c0,0.7,0.1,1.2,0.3,1.5c0.2,0.3,0.7,0.5,1.3,0.5c0.3,0,0.4,0.1,0.4,0.3
					c0,0.1-0.1,0.2-0.3,0.2c-0.1,0-0.3,0-0.5,0c-0.2,0-0.6-0.1-1.3-0.1l-0.9,0l-0.7,0c-0.2,0-0.4,0-0.7,0c-0.4,0-0.6,0-0.7,0
					c-0.2,0-0.3-0.1-0.3-0.2c0-0.1,0.1-0.2,0.3-0.2l0.5-0.1c0.3-0.1,0.5-0.3,0.6-0.7c0.1-0.4,0.2-1.1,0.2-2v-8.9
					c0-0.6-0.1-1-0.3-1.3c-0.2-0.3-0.6-0.4-1.2-0.5c-0.2,0-0.3-0.1-0.3-0.2c0-0.1,0.1-0.2,0.3-0.2c0.1,0,0.3,0,0.6,0.1
					c0.5,0.1,1.2,0.1,1.9,0.1c0.5,0,1,0,1.4-0.1c0.2,0,0.3,0,0.4,0c0.2,0,0.3,0.1,0.3,0.2c0,0.1-0.1,0.2-0.3,0.2
					c-0.5,0.1-0.8,0.3-0.9,0.5c-0.2,0.2-0.2,0.6-0.2,1.1v3.7c0,0.4,0,0.6,0.1,0.7C230.4,48.5,230.7,48.6,231.1,48.6"/>
				<path class="st2" d="M246.7,45.1v7.8c0,1,0.1,1.6,0.2,1.9c0.1,0.4,0.3,0.6,0.5,0.8c0.2,0.1,0.5,0.2,1,0.3c0.4,0,0.5,0.1,0.5,0.3
					c0,0.2-0.1,0.2-0.3,0.2c-0.1,0-0.2,0-0.4,0c-0.2,0-0.6-0.1-1.1-0.1l-1.5,0l-1.2,0.1c-0.2,0-0.4,0-0.5,0c-0.2,0-0.3-0.1-0.3-0.2
					c0-0.1,0.1-0.2,0.3-0.2c0.5-0.1,0.9-0.3,1-0.5c0.1-0.3,0.2-0.9,0.2-1.7v-8.9c0-0.9-0.1-1.4-0.3-1.7c-0.2-0.3-0.6-0.5-1.3-0.6
					c-0.2,0-0.3-0.1-0.3-0.2c0-0.1,0.1-0.2,0.3-0.2c0.1,0,0.1,0,0.2,0c0.5,0.1,1.2,0.1,2,0.1c0.5,0,1,0,1.3,0l0.7-0.1
					c0.1,0,0.2,0,0.3,0c0.2,0,0.3,0.1,0.3,0.2c0,0.1-0.1,0.2-0.3,0.3l-0.5,0.2C247,42.8,246.7,43.6,246.7,45.1"/>
				<path class="st2" d="M51.5,40.1c0.8,0,1.5,0.1,2.1,0.4l0.8,0.3c0.1,0,0.1,0,0.2,0c0.1,0,0.2,0,0.3-0.1l0.2-0.1c0,0,0.1,0,0.1,0
					c0.2,0,0.3,0.2,0.3,0.6c0,0.1,0,0.5,0.2,1.2l0.2,1.2c0,0.3,0.1,0.4,0.1,0.5c0,0.2-0.1,0.4-0.2,0.4c-0.1,0-0.3-0.2-0.4-0.6
					c-0.3-0.8-0.8-1.5-1.7-2.1c-0.9-0.5-1.8-0.8-2.9-0.8c-0.8,0-1.5,0.2-2.1,0.7c-0.6,0.5-0.8,1.1-0.8,1.8c0,0.7,0.2,1.2,0.5,1.7
					c0.3,0.4,0.7,0.7,1,0.9c0.4,0.2,1.3,0.5,2.8,1c2.9,0.9,4.3,2.5,4.3,4.6c0,1.5-0.5,2.6-1.6,3.6c-1.1,0.9-2.4,1.4-4.1,1.4
					c-0.6,0-1.3-0.1-2-0.3c-0.7-0.2-1.2-0.4-1.6-0.6c-0.1-0.1-0.2-0.2-0.3-0.3c0-0.1-0.1-0.4-0.2-0.8c0-0.1-0.1-0.4-0.3-1.1
					c-0.2-0.7-0.3-1.2-0.3-1.5c0-0.2,0.1-0.3,0.2-0.3c0.1,0,0.3,0.2,0.4,0.6c0.3,1,0.9,1.8,1.8,2.4c0.9,0.7,1.9,1,2.9,1
					c1.1,0,2-0.3,2.7-0.9c0.7-0.6,1.1-1.4,1.1-2.3c0-0.9-0.3-1.6-1-2.2c-0.3-0.3-1.4-0.7-3-1.3c-1.7-0.6-2.9-1.2-3.6-1.9
					c-0.7-0.7-1.1-1.6-1.1-2.7c0-1.3,0.5-2.3,1.4-3.1C48.8,40.4,50,40.1,51.5,40.1"/>
				<path class="st2" d="M64.9,51h-3.8c-0.5,0-0.8,0-1,0.1c-0.1,0.1-0.3,0.4-0.5,0.8l-0.7,1.5c-0.3,0.7-0.5,1.2-0.5,1.5
					c0,0.3,0.1,0.5,0.2,0.7c0.2,0.1,0.5,0.3,1,0.4c0.2,0,0.3,0.1,0.3,0.2c0,0.1-0.1,0.2-0.3,0.2c-0.1,0-0.2,0-0.4,0l-1-0.1
					c-0.3,0-0.7,0-1.2,0c-0.2,0-0.4,0-0.5,0c-0.4,0-0.6,0.1-0.6,0.1c-0.2,0-0.3-0.1-0.3-0.2c0-0.1,0.1-0.2,0.2-0.2l0.4-0.1
					c0.1,0,0.3-0.2,0.6-0.5c0.2-0.3,0.4-0.6,0.6-0.9l0.3-0.7l5.4-11.6c0.1-0.2,0.2-0.3,0.3-0.3c0.1,0,0.2,0.1,0.3,0.3l4.5,11.2
					l0.2,0.6c0.3,0.8,0.6,1.3,0.8,1.5c0.2,0.2,0.7,0.4,1.3,0.5c0.2,0,0.3,0.1,0.3,0.2c0,0.1-0.1,0.2-0.3,0.2c-0.1,0-0.2,0-0.4,0
					c-0.4,0-1-0.1-1.9-0.1c-1,0-1.6,0-1.8,0.1c-0.1,0-0.3,0-0.3,0c-0.2,0-0.3-0.1-0.3-0.2c0-0.1,0.1-0.2,0.3-0.2l0.3-0.1
					c0.3-0.1,0.5-0.3,0.5-0.7c0-0.4-0.2-1.1-0.6-2.1l-0.5-1.3c-0.1-0.4-0.3-0.6-0.4-0.6C65.5,51,65.3,51,64.9,51 M65,49.3l-1.6-4
					l-0.1-0.2c-0.1-0.2-0.2-0.3-0.3-0.3c0,0-0.1,0.1-0.2,0.2l-2,4.4c-0.1,0.2-0.1,0.3-0.1,0.4c0,0.2,0.2,0.3,0.5,0.3l0.3,0h3.2
					c0.3,0,0.5-0.1,0.5-0.3c0,0,0-0.1-0.1-0.2L65,49.3z"/>
				<path class="st2" d="M79.2,51h-3.8c-0.5,0-0.8,0-1,0.1c-0.1,0.1-0.3,0.4-0.5,0.8l-0.7,1.5c-0.3,0.7-0.5,1.2-0.5,1.5
					c0,0.3,0.1,0.5,0.2,0.7c0.2,0.1,0.5,0.3,1,0.4c0.2,0,0.3,0.1,0.3,0.2c0,0.1-0.1,0.2-0.3,0.2c-0.1,0-0.2,0-0.4,0l-1-0.1
					c-0.3,0-0.7,0-1.2,0c-0.2,0-0.4,0-0.5,0c-0.4,0-0.6,0.1-0.6,0.1c-0.2,0-0.3-0.1-0.3-0.2c0-0.1,0.1-0.2,0.2-0.2l0.4-0.1
					c0.1,0,0.3-0.2,0.6-0.5c0.2-0.3,0.4-0.6,0.6-0.9l0.3-0.7l5.4-11.6c0.1-0.2,0.2-0.3,0.3-0.3c0.1,0,0.2,0.1,0.3,0.3l4.5,11.2
					l0.2,0.6c0.3,0.8,0.6,1.3,0.8,1.5c0.2,0.2,0.7,0.4,1.3,0.5c0.2,0,0.3,0.1,0.3,0.2c0,0.1-0.1,0.2-0.3,0.2c-0.1,0-0.2,0-0.4,0
					c-0.4,0-1-0.1-1.9-0.1c-1,0-1.6,0-1.8,0.1c-0.1,0-0.3,0-0.3,0c-0.2,0-0.3-0.1-0.3-0.2c0-0.1,0.1-0.2,0.3-0.2l0.3-0.1
					c0.3-0.1,0.5-0.3,0.5-0.7c0-0.4-0.2-1.1-0.6-2.1l-0.5-1.3c-0.1-0.4-0.3-0.6-0.3-0.6C79.9,51,79.6,51,79.2,51 M79.4,49.3l-1.6-4
					l-0.1-0.2c-0.1-0.2-0.2-0.3-0.3-0.3c0,0-0.1,0.1-0.2,0.2l-2.1,4.4C75,49.5,75,49.7,75,49.7c0,0.2,0.2,0.3,0.5,0.3l0.3,0h3.2
					c0.3,0,0.5-0.1,0.5-0.3c0,0,0-0.1-0.1-0.2L79.4,49.3z"/>
				<path class="st2" d="M93.7,43h-2.9c-0.3,0-0.5,0-0.6,0.1c-0.1,0.1-0.1,0.3-0.1,0.6v10.3l0,0.4c0,0.8,0.5,1.3,1.4,1.5
					c0.2,0,0.4,0.1,0.4,0.2c0,0.2-0.1,0.2-0.3,0.2c-0.1,0-0.3,0-0.5-0.1c-0.1,0-0.5,0-1,0l-0.8,0l-0.8,0c-0.3,0-0.5,0-0.7,0
					c-0.4,0-0.6,0.1-0.7,0.1c-0.2,0-0.3-0.1-0.3-0.2c0-0.1,0.1-0.2,0.3-0.2c0.5-0.1,0.9-0.2,1.1-0.4c0.2-0.2,0.3-0.6,0.3-1.2V43.9
					l0-0.3c0-0.3,0-0.4-0.1-0.5c-0.1-0.1-0.2-0.1-0.5-0.1H85c-0.6,0-1,0.1-1.2,0.3c-0.3,0.2-0.5,0.7-0.6,1.3
					c-0.1,0.3-0.2,0.4-0.3,0.4c-0.1,0-0.2-0.1-0.2-0.3c0-0.1,0-0.4,0.1-0.8C83,43.5,83,43,83,42.7c0-0.3,0-0.5,0.1-0.6
					c0.1-0.1,0.2-0.2,0.5-0.2h11.3c0.4,0,0.6,0,0.7,0.1c0.1,0.1,0.1,0.3,0.1,0.7c0,0.4,0,0.7,0.1,0.9c0,0.2,0.1,0.4,0.1,0.5
					c0,0.2-0.1,0.3-0.2,0.3c-0.1,0-0.2-0.1-0.3-0.3c-0.1-0.5-0.2-0.8-0.4-1C94.7,43.1,94.3,43,93.7,43"/>
				<path class="st2" d="M108.6,43.4l0.3,2.5l0,0.3l0,0.1c0,0.1-0.1,0.1-0.2,0.1c-0.1,0-0.2-0.1-0.4-0.4c-1.3-2.3-3.1-3.4-5.3-3.4
					c-1.8,0-3.2,0.5-4.2,1.6c-1,1.1-1.5,2.6-1.5,4.4c0,2.2,0.6,3.9,1.7,5.3c1.1,1.4,2.6,2.1,4.4,2.1c1,0,2.1-0.3,3.1-0.8
					c1-0.5,1.7-1.2,2.1-2c0.2-0.4,0.3-0.6,0.4-0.6c0.1,0,0.2,0.1,0.2,0.2l0,0.1l0,0.2l-0.2,1.3l0,0.2c0,0.2-0.2,0.4-0.5,0.6
					c-1.6,1-3.4,1.5-5.3,1.5c-2.3,0-4.1-0.7-5.4-2c-1.4-1.3-2.1-3.1-2.1-5.2c0-2.1,0.7-3.9,2.1-5.4c1.4-1.4,3.2-2.1,5.4-2.1
					c1.5,0,2.8,0.3,4.1,1l0.4,0.2l0.2,0.1l0.2,0.1c0,0,0.1,0,0.2-0.1c0.2-0.1,0.3-0.2,0.3-0.2C108.5,43,108.5,43.1,108.6,43.4"/>
				<path class="st2" d="M114.3,48.6h6.2c0.3,0,0.5,0,0.6-0.1c0.1-0.1,0.1-0.2,0.1-0.4v-3.5c0-0.7-0.1-1.2-0.3-1.5
					c-0.2-0.3-0.5-0.5-1-0.6c-0.2,0-0.3-0.1-0.3-0.2c0-0.1,0.1-0.2,0.3-0.2c0.1,0,0.4,0,0.7,0.1c0.5,0,1,0.1,1.5,0.1
					c0.7,0,1.3,0,1.6-0.1c0.2,0,0.3,0,0.4,0c0.2,0,0.3,0.1,0.3,0.2c0,0.1-0.1,0.2-0.3,0.2l-0.4,0.1c-0.2,0-0.4,0.2-0.5,0.5
					c-0.1,0.3-0.2,0.6-0.2,0.9v10c0,0.7,0.1,1.2,0.3,1.5c0.2,0.3,0.6,0.5,1.2,0.5c0.2,0,0.3,0.1,0.3,0.2c0,0.2-0.1,0.2-0.3,0.2
					c-0.1,0-0.3,0-0.5,0c-0.2,0-0.5,0-1.1,0l-0.8,0l-0.8,0c-0.1,0-0.3,0-0.5,0c-0.4,0-0.7,0-0.7,0c-0.2,0-0.3-0.1-0.3-0.2
					c0-0.1,0.1-0.2,0.4-0.2c0.7-0.1,1.1-0.7,1.1-1.8l0-0.4V50c0-0.3,0-0.5-0.1-0.6c-0.1-0.1-0.3-0.1-0.6-0.1h-6.2
					c-0.4,0-0.6,0-0.7,0.1c-0.1,0.1-0.1,0.3-0.1,0.6v3.8c0,0.7,0.1,1.2,0.3,1.5c0.2,0.3,0.7,0.5,1.3,0.5c0.3,0,0.4,0.1,0.4,0.3
					c0,0.1-0.1,0.2-0.3,0.2c-0.1,0-0.3,0-0.5,0c-0.2,0-0.6-0.1-1.3-0.1l-0.9,0l-0.7,0c-0.2,0-0.4,0-0.7,0c-0.4,0-0.6,0-0.7,0
					c-0.2,0-0.3-0.1-0.3-0.2c0-0.1,0.1-0.2,0.3-0.2l0.5-0.1c0.3-0.1,0.5-0.3,0.6-0.7c0.1-0.4,0.2-1.1,0.2-2v-8.9
					c0-0.6-0.1-1-0.3-1.3c-0.2-0.3-0.6-0.4-1.2-0.5c-0.2,0-0.3-0.1-0.3-0.2c0-0.1,0.1-0.2,0.3-0.2c0.1,0,0.3,0,0.6,0.1
					c0.5,0.1,1.2,0.1,1.9,0.1c0.5,0,1,0,1.4-0.1c0.2,0,0.3,0,0.4,0c0.2,0,0.3,0.1,0.3,0.2c0,0.1-0.1,0.2-0.3,0.2
					c-0.5,0.1-0.8,0.3-0.9,0.5c-0.2,0.2-0.2,0.6-0.2,1.1v3.7c0,0.4,0,0.6,0.1,0.7C113.6,48.5,113.8,48.6,114.3,48.6"/>
				<path class="st2" d="M129.8,45.1v7.8c0,1,0.1,1.6,0.2,1.9c0.1,0.4,0.3,0.6,0.5,0.8c0.2,0.1,0.5,0.2,1,0.3c0.4,0,0.5,0.1,0.5,0.3
					c0,0.2-0.1,0.2-0.3,0.2c-0.1,0-0.2,0-0.4,0c-0.2,0-0.6-0.1-1.1-0.1l-1.5,0l-1.2,0.1c-0.2,0-0.4,0-0.5,0c-0.2,0-0.3-0.1-0.3-0.2
					c0-0.1,0.1-0.2,0.3-0.2c0.5-0.1,0.9-0.3,1-0.5c0.2-0.3,0.2-0.9,0.2-1.7v-8.9c0-0.9-0.1-1.4-0.3-1.7c-0.2-0.3-0.6-0.5-1.3-0.6
					c-0.2,0-0.3-0.1-0.3-0.2c0-0.1,0.1-0.2,0.3-0.2c0.1,0,0.1,0,0.2,0c0.5,0.1,1.2,0.1,2,0.1c0.5,0,1,0,1.3,0l0.7-0.1
					c0.1,0,0.2,0,0.3,0c0.2,0,0.3,0.1,0.3,0.2c0,0.1-0.1,0.2-0.3,0.3l-0.6,0.2C130.1,42.8,129.8,43.6,129.8,45.1"/>
				<path class="st2" d="M182.7,85c0,1.2,0,6,0.1,7.1c-0.1,0.2-0.3,0.4-0.8,0.4c-0.5-0.7-1.7-2.1-5.2-6.1l-9.4-10.7
					c-1.1-1.3-3.9-4.6-4.7-5.5h-0.1c-0.2,0.5-0.2,1.4-0.2,2.6v8.8c0,1.9,0.1,7.2,0.7,8.4c0.3,0.4,1.1,0.7,2.1,0.8l1.3,0.1
					c0.2,0.3,0.2,0.8-0.1,1c-1.8-0.1-3.2-0.1-4.7-0.1c-1.7,0-2.8,0-4.2,0.1c-0.3-0.2-0.3-0.8-0.1-1l1.1-0.1c0.9-0.1,1.6-0.4,1.8-0.8
					c0.6-1.5,0.5-6.4,0.5-8.4V70c0-1.1,0-2-0.9-2.9c-0.6-0.6-1.5-0.9-2.5-1l-0.7-0.1c-0.2-0.2-0.2-0.9,0.1-1
					c1.7,0.1,3.9,0.1,4.6,0.1c0.6,0,1.3,0,1.9-0.1c0.8,2.1,5.6,7.4,6.9,8.9l3.9,4.4c2.8,3.2,4.8,5.4,6.7,7.3h0.1
					c0.2-0.2,0.2-0.9,0.2-1.7v-8.7c0-1.9,0-7.2-0.8-8.4c-0.2-0.4-0.9-0.6-2.5-0.8l-0.7-0.1c-0.3-0.2-0.2-0.9,0.1-1
					c1.9,0.1,3.2,0.1,4.8,0.1c1.7,0,2.8,0,4.2-0.1c0.3,0.2,0.3,0.8,0.1,1l-0.6,0.1c-1.3,0.2-2.1,0.5-2.3,0.9
					c-0.7,1.5-0.6,6.5-0.6,8.4V85z"/>
				<path class="st2" d="M46.2,63.3c-0.3-0.3-0.2-0.9,0.1-1.1c1.1,0.1,3.1,0.1,4.4,0.1c1.2,0,3.4,0,4.9-0.1c0.4,0.1,0.3,0.8,0.1,1.1
					l-1,0.1c-0.9,0.1-1.4,0.4-1.4,0.8c0,0.5,0.9,2.8,2.2,6c2.4,5.6,4.9,11.2,7.4,16.7c1-2.2,2.1-4.7,3.3-7.3
					c0.3-0.9,0.7-1.6,0.7-1.8c0-0.2-0.1-0.6-0.3-1.2c-1.5-3.6-3.1-7.2-4.7-10.7c-0.6-1.4-1.3-2.3-2.7-2.5l-1-0.1
					c-0.3-0.4-0.3-0.9,0.1-1.1c1.2,0.1,2.9,0.1,4.6,0.1c2.1,0,3.7,0,4.7-0.1c0.3,0.1,0.3,0.7,0.1,1.1l-1.1,0.1
					c-1.7,0.1-1.7,0.4-0.9,2.5c0.9,2.2,2.1,5,3.3,7.8c0.8-1.7,1.6-3.4,2.5-5.9c1.5-3.8,1.3-4.3,0-4.4l-1.3-0.1
					c-0.3-0.4-0.2-0.9,0.1-1.1c1.1,0.1,2.4,0.1,4,0.1c1.4,0,3.1,0,4.1-0.1c0.3,0.1,0.3,0.7,0.1,1.1l-1.2,0.1c-1.8,0.1-2.6,2.1-3.5,4
					c-0.9,1.7-2.7,5.6-3.3,7.1c-0.2,0.4-0.4,0.9-0.4,1.1c0,0.2,0.1,0.5,0.3,1.1c1.4,3.4,2.9,6.8,4.3,10.2c1.3-3.1,2.6-6.3,3.8-9.4
					c0.8-2.1,3.1-8.1,3.4-8.9c0.6-1.6,1.3-3.5,1.3-4.1c0-0.6-0.5-1-1.4-1l-1.2-0.1c-0.3-0.4-0.3-0.9,0-1.1c1.6,0.1,2.8,0.1,4.1,0.1
					c1.6,0,2.9,0,4-0.1c0.3,0.1,0.4,0.7,0.1,1.1l-0.8,0.1c-2.1,0.2-2.5,1.6-5.1,7.8l-3.1,7.6c-1.8,4.6-3.6,9-5.3,13.7
					c-0.1,0.1-0.3,0.1-0.5,0.1c-0.2,0-0.4,0-0.6-0.1c-1.4-4-3.8-9.6-5.1-12.7c-1.5,3.3-4.1,9-5.3,12.7c-0.1,0.1-0.3,0.1-0.5,0.1
					c-0.2,0-0.4,0-0.6-0.1c-0.7-1.9-2.4-5.9-2.9-7.2c-2.7-6.2-5.4-12.5-8.1-18.7c-0.8-1.8-1.3-3-3.1-3.2L46.2,63.3z"/>
				<path class="st2" d="M92.3,71.3c0-4.2-0.1-4.8-2.5-5.1l-0.6-0.1c-0.2-0.2-0.2-0.9,0.1-1c1.7,0.1,3.1,0.1,4.8,0.1h7.6
					c2.6,0,5,0,5.5-0.1c0.2,0.7,0.5,3.6,0.6,5.4c-0.2,0.2-0.8,0.3-1,0.1c-0.6-1.9-1-3.3-3.1-3.9c-0.9-0.2-2.1-0.2-3.9-0.2h-2.9
					c-1.2,0-1.2,0.1-1.2,1.6v8.1c0,1.1,0.1,1.1,1.3,1.1h2.4c1.7,0,3-0.1,3.4-0.2c0.5-0.2,0.8-0.4,1-1.4l0.3-1.7
					c0.2-0.2,0.9-0.2,1.1,0c0,1-0.2,2.6-0.2,4.1c0,1.5,0.2,3,0.2,3.9c-0.2,0.3-0.8,0.3-1.1,0l-0.4-1.6c-0.2-0.7-0.4-1.3-1.3-1.5
					c-0.6-0.2-1.5-0.2-3.1-0.2H97c-1.2,0-1.3,0-1.3,1.1v5.7c0,2.1,0.1,3.5,0.8,4.2c0.5,0.5,1.3,0.9,4.9,0.9c3.1,0,4.3-0.2,5.2-0.6
					c0.7-0.4,1.8-1.8,2.9-3.9c0.3-0.2,0.9-0.1,1,0.3c-0.3,1.4-1.3,4.5-1.8,5.6c-3.6-0.1-7.3-0.1-10.9-0.1h-3.7c-1.7,0-3.1,0-5.5,0.1
					c-0.2-0.1-0.3-0.8-0.1-1l1.3-0.1c2.3-0.2,2.5-0.8,2.5-5.1V71.3z"/>
				<path class="st2" d="M116,71.3c0-4.3-0.1-4.9-2.6-5.1l-1-0.1c-0.2-0.2-0.2-0.9,0.1-1c2.3,0.1,3.7,0.1,5.3,0.1c1.6,0,3,0,5-0.1
					c0.2,0.1,0.3,0.9,0.1,1l-1,0.1c-2.4,0.2-2.5,0.9-2.5,5.1v14.1c0,2.6,0.1,3.6,0.9,4.4c0.4,0.4,1.2,0.9,4.4,0.9
					c3.4,0,4.3-0.2,4.9-0.5c0.8-0.5,1.9-1.9,2.7-4c0.2-0.2,1,0,1,0.2c0,0.4-1.1,4.6-1.7,5.7c-2.1-0.1-5.9-0.1-10.1-0.1h-3.7
					c-1.7,0-3,0-5.3,0.1c-0.2-0.1-0.3-0.8-0.1-1l1.2-0.1c2.4-0.2,2.4-0.8,2.4-5.1V71.3z"/>
				<path class="st2" d="M138.4,71.3c0-4.3-0.1-4.9-2.6-5.1l-1-0.1c-0.2-0.2-0.2-0.9,0.1-1c2.3,0.1,3.7,0.1,5.3,0.1c1.6,0,3,0,5-0.1
					c0.2,0.1,0.3,0.9,0.1,1l-1,0.1c-2.4,0.2-2.5,0.9-2.5,5.1v14.1c0,2.6,0.1,3.6,0.9,4.4c0.4,0.4,1.2,0.9,4.4,0.9
					c3.4,0,4.3-0.2,4.9-0.5c0.8-0.5,1.9-1.9,2.7-4c0.2-0.2,1,0,1,0.2c0,0.4-1.1,4.6-1.7,5.7c-2.1-0.1-5.9-0.1-10.1-0.1h-3.7
					c-1.7,0-3,0-5.3,0.1c-0.2-0.1-0.3-0.8-0.1-1l1.2-0.1c2.4-0.2,2.4-0.8,2.4-5.1V71.3z"/>
				<path class="st2" d="M192.6,71.3c0-4.2-0.1-4.8-2.5-5.1l-0.6-0.1c-0.2-0.2-0.2-0.9,0.1-1c1.7,0.1,3.1,0.1,4.8,0.1h7.6
					c2.6,0,5,0,5.5-0.1c0.2,0.7,0.5,3.6,0.6,5.4c-0.2,0.2-0.8,0.3-1,0.1c-0.6-1.9-1-3.3-3.1-3.9c-0.9-0.2-2.1-0.2-3.9-0.2h-2.9
					c-1.2,0-1.2,0.1-1.2,1.6v8.1c0,1.1,0.1,1.1,1.3,1.1h2.4c1.7,0,3-0.1,3.4-0.2c0.5-0.2,0.8-0.4,1-1.4l0.3-1.7
					c0.2-0.2,0.9-0.2,1.1,0c0,1-0.2,2.6-0.2,4.1c0,1.5,0.2,3,0.2,3.9c-0.2,0.3-0.9,0.3-1.1,0l-0.4-1.6c-0.2-0.7-0.4-1.3-1.3-1.5
					c-0.6-0.2-1.5-0.2-3.1-0.2h-2.4c-1.2,0-1.3,0-1.3,1.1v5.7c0,2.1,0.1,3.5,0.8,4.2c0.5,0.5,1.3,0.9,4.9,0.9c3.1,0,4.3-0.2,5.2-0.6
					c0.7-0.4,1.8-1.8,2.9-3.9c0.3-0.2,0.9-0.1,1,0.3c-0.3,1.4-1.3,4.5-1.8,5.6c-3.6-0.1-7.3-0.1-10.9-0.1h-3.7c-1.7,0-3.1,0-5.5,0.1
					c-0.2-0.1-0.3-0.8-0.1-1l1.3-0.1c2.3-0.2,2.5-0.8,2.5-5.1V71.3z"/>
				<path class="st2" d="M220.2,92.6c-3.4,0-5.6-1.1-6.3-1.5c-0.5-0.9-1-3.8-1.1-5.7c0.2-0.3,0.8-0.4,1-0.1c0.6,2.1,2.3,6,7,6
					c3.4,0,5.1-2.2,5.1-4.7c0-1.8-0.4-3.8-3.3-5.7l-3.9-2.5c-2-1.3-4.4-3.6-4.4-7c0-3.9,3-7,8.3-7c1.3,0,2.7,0.2,3.8,0.5
					c0.5,0.1,1.1,0.2,1.4,0.2c0.4,1,0.7,3.2,0.7,4.9c-0.2,0.2-0.8,0.4-1,0.1c-0.5-1.9-1.6-4.6-5.5-4.6c-4,0-4.8,2.6-4.8,4.5
					c0,2.4,1.9,4,3.4,5l3.2,2c2.6,1.6,5.1,3.9,5.1,7.8C228.8,89.6,225.5,92.6,220.2,92.6"/>
				<path class="st2" d="M240,92.6c-3.4,0-5.6-1.1-6.3-1.5c-0.5-0.9-1-3.8-1.1-5.7c0.2-0.3,0.8-0.4,1-0.1c0.6,2.1,2.3,6,7,6
					c3.4,0,5.1-2.2,5.1-4.7c0-1.8-0.4-3.8-3.3-5.7l-3.9-2.5c-2-1.3-4.4-3.6-4.4-7c0-3.9,3-7,8.3-7c1.3,0,2.7,0.2,3.8,0.5
					c0.5,0.1,1.1,0.2,1.4,0.2c0.4,1,0.7,3.2,0.7,4.9c-0.2,0.2-0.8,0.4-1,0.1c-0.5-1.9-1.6-4.6-5.5-4.6c-4,0-4.8,2.6-4.8,4.5
					c0,2.4,1.9,4,3.4,5l3.2,2c2.6,1.6,5.1,3.9,5.1,7.8C248.7,89.6,245.3,92.6,240,92.6"/>
			</g>
		</g>
	</g>
</g>
<g>
	<g>
		<g>
			<line class="st3" x1="5.7" y1="0" x2="5.7" y2="11.3"/>
		</g>
	</g>
	<line class="st3" x1="11.3" y1="5.7" x2="0" y2="5.7"/>
</g>
</svg>
